<svg xmlns="http://www.w3.org/2000/svg" width="160" height="166.763" viewBox="0 0 200 200">
    <g fill-rule="evenodd">
        <path d="M7.603 131.858C-6.324 100.882-.7 62.374 21.047 36.373 39.16 13.281 68.368-1.339 97.91.097c8.286.353 16.432 1.825 24.35 4.295-14.954.294-29.961 3.105-44.005 8.384-7.022 2.64-13.802 5.896-20.215 9.764a115.459 115.459 0 00-9.328 6.26 110.86 110.86 0 00-8.68 7.171 98.994 98.994 0 00-6.846 7.048 102.02 102.02 0 00-6.116 7.67 106.013 106.013 0 00-9.943 16.89C11.55 79.423 8.122 92.293 7.112 105.343c-.78 8.89-.555 17.859.552 26.711z" fill="#0064fb"></path>
        <path d="M159.961 47.6C115.917 62.754 70.746 76.599 29.145 97.805c-2.401 6.316 57 4.976 62.742 10.717 6.818 6.05 3.515 56.816 11.023 58.242 6.741-4.206 57.051-119.162 57.051-119.162zm-11.553 12.61l-42.61 82.815-3.4-37.36z" fill="#0064fb"></path>
    </g>
</svg>